#!OML:ASF H:\BreakDance\Project 1\Capture day 1\Session 1\Male.ASF
:FULLY-SPECIFIED
:DEGREES
2156
root -0.239057 11.81 -4.06418 -88.0238 -52.961 175.578
lowerback 21.881 2.31191 3.15628
upperback 8.64261 2.78651 -2.02535
thorax -2.49634 1.23135 -4.6044
lowerneck 3.32654 -8.5664 3.46311
upperneck -29.2382 -10.6771 8.05596
head -9.52513 -7.09985 3.30431
rclavicle 1.59028e-015 -3.02153e-014
rhumerus 61.7242 -13.7966 -38.051
rradius 35.9863
rwrist -18.3189
rhand -54.7344 -441.667
rfingers 7.12502
rthumb -27.1261 109.738
lclavicle 1.59028e-015 -3.02153e-014
lhumerus 64.5884 -5.55533 39.8141
lradius 47.8928
lwrist 12.8462
lhand -61.8763 636.958
lfingers 7.12502
lthumb -33.9362 303.756
rfemur -103.818 -7.79211 8.962
rtibia 102.875
rfoot -23.9484 -12.7017
rtoes 34.7985
lfemur 257.511 -6.52674 321.872
ltibia 87.4429
lfoot -37.4383 -20.0702
ltoes 12.0275
2157
root -0.229626 11.9171 -4.07624 -88.4998 -52.5807 176.687
lowerback 22.3227 2.34185 3.19967
upperback 8.6183 2.81759 -2.28366
thorax -2.72151 1.24342 -4.93822
lowerneck 3.23722 -8.48457 3.24481
upperneck -29.3954 -10.6904 7.78896
head -9.56571 -7.07226 3.25548
rclavicle 7.31528e-014 1.66979e-014
rhumerus 62.7139 -13.922 -38.5742
rradius 35.6456
rwrist -17.9579
rhand -54.6778 -441.833
rfingers 7.12502
rthumb -27.072 109.912
lclavicle 7.31528e-014 1.66979e-014
lhumerus 63.4958 -8.2197 39.2589
lradius 50.6172
lwrist 13.6072
lhand -61.8286 636.39
lfingers 7.12502
lthumb -33.8909 303.198
rfemur -99.9226 -7.23544 8.96351
rtibia 97.5701
rfoot -23.6782 -13.9876
rtoes 35.4024
lfemur 257.726 -6.52685 321.876
ltibia 85.9306
lfoot -38.805 -17.413
ltoes 7.82232
2158
root -0.230937 12.0237 -4.09243 -89.0883 -52.2424 177.802
lowerback 22.8795 2.3013 3.28223
upperback 8.62873 2.75846 -2.57966
thorax -2.97013 1.21032 -5.32124
lowerneck 3.08186 -8.37035 3.00348
upperneck -29.4704 -10.6396 7.60687
head -9.55864 -7.01733 3.22326
rclavicle -1.24042e-013 3.57812e-014
rhumerus 63.7097 -13.9308 -39.3408
rradius 35.3637
rwrist -17.5334
rhand -54.6258 -442.01
rfingers 7.12502
rthumb -27.0222 110.096
lclavicle -1.24042e-013 3.57812e-014
lhumerus 62.5308 -10.9338 38.6203
lradius 53.0715
lwrist 14.5311
lhand -61.9084 635.89
lfingers 7.12502
lthumb -33.9667 302.681
rfemur -95.6187 -6.64196 9.06247
rtibia 91.7089
rfoot -22.7682 -15.5752
rtoes 35.7371
lfemur 258.116 -6.56362 322.053
ltibia 84.4047
lfoot -40.0642 -14.5387
ltoes 3.44058
2159
root -0.234616 12.1213 -4.11076 -89.7113 -51.933 178.879
lowerback 23.4945 2.19436 3.42067
upperback 8.66828 2.61639 -2.96195
thorax -3.21656 1.13823 -5.81476
lowerneck 2.90885 -8.24563 2.86797
upperneck -29.5618 -10.5334 7.5136
head -9.55825 -6.95768 3.20075
rclavicle -7.31528e-014 3.49861e-014
rhumerus 64.5447 -13.9141 -40.0975
rradius 35.2095
rwrist -17.3197
rhand -54.5481 -442.309
rfingers 7.12502
rthumb -26.9479 110.407
lclavicle -7.31528e-014 3.49861e-014
lhumerus 61.8313 -13.6982 37.8431
lradius 55.1888
lwrist 15.7457
lhand -62.0839 635.313
lfingers 7.12502
lthumb -34.1334 302.067
rfemur -91.0382 -6.05663 9.27668
rtibia 85.4166
rfoot -21.216 -17.3329
rtoes 34.7705
lfemur 258.596 -6.66412 322.385
ltibia 82.9124
lfoot -41.22 -11.5183
ltoes -1.06814
2160
root -0.235344 12.2065 -4.12965 -90.3047 -51.6437 179.894
lowerback 24.0973 2.07499 3.5132
upperback 8.71381 2.44423 -3.37813
thorax -3.45574 1.05108 -6.31301
lowerneck 2.79171 -8.12763 2.80211
upperneck -29.693 -10.3889 7.52869
head -9.58228 -6.89902 3.20742
rclavicle 9.22361e-014 3.18055e-015
rhumerus 65.3533 -13.8637 -40.7649
rradius 34.9752
rwrist -17.2953
rhand -54.4281 -442.638
rfingers 7.12502
rthumb -26.833 110.754
lclavicle 9.22361e-014 3.18055e-015
lhumerus 61.452 -16.5291 37.088
lradius 56.9155
lwrist 17.2698
lhand -62.314 634.903
lfingers 7.12502
lthumb -34.3519 301.608
rfemur -86.3196 -5.52743 9.63321
rtibia 78.8872
rfoot -19.2521 -18.9461
rtoes 31.6974
lfemur 259.041 -6.83918 322.871
ltibia 81.5218
lfoot -42.3057 -8.51183
ltoes -5.21326
2161
root -0.228502 12.278 -4.14712 -90.841 -51.3953 180.87
lowerback 24.6003 1.98476 3.5398
upperback 8.7528 2.29232 -3.81045
thorax -3.65451 0.974689 -6.79355
lowerneck 2.76124 -8.04401 2.85682
upperneck -29.907 -10.2532 7.6023
head -9.65811 -6.86613 3.22761
rclavicle 1.74931e-013 -6.91771e-014
rhumerus 66.0526 -13.8297 -41.1444
rradius 34.6554
rwrist -17.6102
rhand -54.2682 -442.886
rfingers 7.12502
rthumb -26.68 111.026
lclavicle 1.74931e-013 -6.91771e-014
lhumerus 61.4238 -19.4096 36.436
lradius 58.2405
lwrist 19.0161
lhand -62.6051 635.056
lfingers 7.12502
lthumb -34.6282 301.698
rfemur -81.603 -5.08259 10.188
rtibia 72.34
rfoot -17.23 -20.1159
rtoes 25.4251
lfemur 259.33 -7.07503 323.57
ltibia 80.2853
lfoot -43.3081 -5.72231
ltoes -8.49252
2162
root -0.211886 12.3373 -4.16202 -91.3316 -51.2159 181.864
lowerback 24.9173 1.97998 3.43635
upperback 8.77153 2.22344 -4.20065
thorax -3.78305 0.93946 -7.16657
lowerneck 2.84901 -8.00299 2.94655
upperneck -30.1784 -10.1446 7.7363
head -9.77591 -6.85691 3.27658
rclavicle -1.74931e-014 2.70347e-014
rhumerus 66.6584 -13.8051 -41.1485
rradius 34.2053
rwrist -18.2625
rhand -54.0409 -443.02
rfingers 7.12502
rthumb -26.4625 111.192
lclavicle -1.74931e-014 2.70347e-014
lhumerus 61.6969 -22.3123 36.0104
lradius 59.155
lwrist 20.8023
lhand -62.9937 636.035
lfingers 7.12502
lthumb -34.9969 302.592
rfemur -77.0148 -4.74197 11.0069
rtibia 66.0056
rfoot -15.5095 -20.7314
rtoes 15.644
lfemur 259.389 -7.33213 324.558
ltibia 79.2113
lfoot -44.2228 -3.30509
ltoes -10.6227
